<?xml version="1.0" encoding="UTF-8" standalone="no"?>
<svg
   xmlns:dc="http://purl.org/dc/elements/1.1/"
   xmlns:cc="http://creativecommons.org/ns#"
   xmlns:rdf="http://www.w3.org/1999/02/22-rdf-syntax-ns#"
   xmlns:svg="http://www.w3.org/2000/svg"
   xmlns="http://www.w3.org/2000/svg"
   xmlns:sodipodi="http://sodipodi.sourceforge.net/DTD/sodipodi-0.dtd"
   xmlns:inkscape="http://www.inkscape.org/namespaces/inkscape"
   id="svg2"
   viewBox="0 0 64 64"
   version="1.1"
   inkscape:version="0.91 r13725"
   sodipodi:docname="radio.svg">
  <defs
     id="defs3448" />
  <sodipodi:namedview
     pagecolor="#000000"
     bordercolor="#666666"
     borderopacity="1"
     objecttolerance="10"
     gridtolerance="10"
     guidetolerance="10"
     inkscape:pageopacity="0"
     inkscape:pageshadow="2"
     inkscape:window-width="1883"
     inkscape:window-height="977"
     id="namedview3446"
     showgrid="false"
     inkscape:zoom="11.313709"
     inkscape:cx="30.680311"
     inkscape:cy="31.5916"
     inkscape:window-x="25"
     inkscape:window-y="0"
     inkscape:window-maximized="0"
     inkscape:current-layer="layer1" />
  <g
     id="layer1"
     transform="translate(0 -988.36)">
    <path
       style="fill:#50646d;fill-opacity:1"
       inkscape:connector-curvature="0"
       d="m 40,1010.4 0,35 -30.058,0 C 7,1045.4 5,1043.4 5,1040.4 l 0,-25 c 0,-3 2,-5 5.0161,-5 l 29.984,0 z"
       id="path2859" />
    <path
       style="fill:#354349;fill-opacity:1"
       inkscape:connector-curvature="0"
       d="m 39.911611,1010.4 15.066292,0 c 3.013258,0 5.022097,2 5.022097,5 l 0,25 c 0,3 -2.008839,5 -5.022097,5 l -15.066292,0 0,-35 z"
       id="rect2952" />
    <g
       transform="translate(0,8)"
       id="g3084"
       style="fill:#354349;fill-opacity:1">
      <path
         inkscape:connector-curvature="0"
         d="m 36,1005.4 2,0 0,2 -2,0 0,-2 z"
         id="rect2955"
         style="fill:#354349;fill-opacity:1" />
      <path
         inkscape:connector-curvature="0"
         d="m 32,1005.4 2,0 0,2 -2,0 0,-2 z"
         id="path2958"
         style="fill:#354349;fill-opacity:1" />
      <path
         inkscape:connector-curvature="0"
         d="m 28,1005.4 2,0 0,2 -2,0 0,-2 z"
         id="path2960"
         style="fill:#354349;fill-opacity:1" />
      <path
         inkscape:connector-curvature="0"
         d="m 24,1005.4 2,0 0,2 -2,0 0,-2 z"
         id="path2962"
         style="fill:#354349;fill-opacity:1" />
      <path
         inkscape:connector-curvature="0"
         d="m 20,1005.4 2,0 0,2 -2,0 0,-2 z"
         id="path2964"
         style="fill:#354349;fill-opacity:1" />
      <path
         inkscape:connector-curvature="0"
         d="m 16,1005.4 2,0 0,2 -2,0 0,-2 z"
         id="path2966"
         style="fill:#354349;fill-opacity:1" />
      <path
         inkscape:connector-curvature="0"
         d="m 12,1005.4 2,0 0,2 -2,0 0,-2 z"
         id="path2968"
         style="fill:#354349;fill-opacity:1" />
      <path
         inkscape:connector-curvature="0"
         d="m 8,1005.4 2,0 0,2 -2,0 0,-2 z"
         id="path2970"
         style="fill:#354349;fill-opacity:1" />
      <path
         inkscape:connector-curvature="0"
         d="m 36,1009.4 2,0 0,2 -2,0 0,-2 z"
         id="path2972"
         style="fill:#354349;fill-opacity:1" />
      <path
         inkscape:connector-curvature="0"
         d="m 32,1009.4 2,0 0,2 -2,0 0,-2 z"
         id="path2974"
         style="fill:#354349;fill-opacity:1" />
      <path
         inkscape:connector-curvature="0"
         d="m 28,1009.4 2,0 0,2 -2,0 0,-2 z"
         id="path2976"
         style="fill:#354349;fill-opacity:1" />
      <path
         inkscape:connector-curvature="0"
         d="m 24,1009.4 2,0 0,2 -2,0 0,-2 z"
         id="path2978"
         style="fill:#354349;fill-opacity:1" />
      <path
         inkscape:connector-curvature="0"
         d="m 20,1009.4 2,0 0,2 -2,0 0,-2 z"
         id="path2980"
         style="fill:#354349;fill-opacity:1" />
      <path
         inkscape:connector-curvature="0"
         d="m 16,1009.4 2,0 0,2 -2,0 0,-2 z"
         id="path2982"
         style="fill:#354349;fill-opacity:1" />
      <path
         inkscape:connector-curvature="0"
         d="m 12,1009.4 2,0 0,2 -2,0 0,-2 z"
         id="path2984"
         style="fill:#354349;fill-opacity:1" />
      <path
         inkscape:connector-curvature="0"
         d="m 8,1009.4 2,0 0,2 -2,0 0,-2 z"
         id="path2986"
         style="fill:#354349;fill-opacity:1" />
      <path
         inkscape:connector-curvature="0"
         d="m 36,1013.4 2,0 0,2 -2,0 0,-2 z"
         id="path2988"
         style="fill:#354349;fill-opacity:1" />
      <path
         inkscape:connector-curvature="0"
         d="m 32,1013.4 2,0 0,2 -2,0 0,-2 z"
         id="path2990"
         style="fill:#354349;fill-opacity:1" />
      <path
         inkscape:connector-curvature="0"
         d="m 28,1013.4 2,0 0,2 -2,0 0,-2 z"
         id="path2992"
         style="fill:#354349;fill-opacity:1" />
      <path
         inkscape:connector-curvature="0"
         d="m 24,1013.4 2,0 0,2 -2,0 0,-2 z"
         id="path2994"
         style="fill:#354349;fill-opacity:1" />
      <path
         inkscape:connector-curvature="0"
         d="m 20,1013.4 2,0 0,2 -2,0 0,-2 z"
         id="path2996"
         style="fill:#354349;fill-opacity:1" />
      <path
         inkscape:connector-curvature="0"
         d="m 16,1013.4 2,0 0,2 -2,0 0,-2 z"
         id="path2998"
         style="fill:#354349;fill-opacity:1" />
      <path
         inkscape:connector-curvature="0"
         d="m 12,1013.4 2,0 0,2 -2,0 0,-2 z"
         id="path3000"
         style="fill:#354349;fill-opacity:1" />
      <path
         inkscape:connector-curvature="0"
         d="m 8,1013.4 2,0 0,2 -2,0 0,-2 z"
         id="path3002"
         style="fill:#354349;fill-opacity:1" />
      <path
         inkscape:connector-curvature="0"
         d="m 36,1017.4 2,0 0,2 -2,0 0,-2 z"
         id="path3004"
         style="fill:#354349;fill-opacity:1" />
      <path
         inkscape:connector-curvature="0"
         d="m 32,1017.4 2,0 0,2 -2,0 0,-2 z"
         id="path3006"
         style="fill:#354349;fill-opacity:1" />
      <path
         inkscape:connector-curvature="0"
         d="m 28,1017.4 2,0 0,2 -2,0 0,-2 z"
         id="path3008"
         style="fill:#354349;fill-opacity:1" />
      <path
         inkscape:connector-curvature="0"
         d="m 24,1017.4 2,0 0,2 -2,0 0,-2 z"
         id="path3010"
         style="fill:#354349;fill-opacity:1" />
      <path
         inkscape:connector-curvature="0"
         d="m 20,1017.4 2,0 0,2 -2,0 0,-2 z"
         id="path3012"
         style="fill:#354349;fill-opacity:1" />
      <path
         inkscape:connector-curvature="0"
         d="m 16,1017.4 2,0 0,2 -2,0 0,-2 z"
         id="path3014"
         style="fill:#354349;fill-opacity:1" />
      <path
         inkscape:connector-curvature="0"
         d="m 12,1017.4 2,0 0,2 -2,0 0,-2 z"
         id="path3016"
         style="fill:#354349;fill-opacity:1" />
      <path
         inkscape:connector-curvature="0"
         d="m 8,1017.4 2,0 0,2 -2,0 0,-2 z"
         id="path3018"
         style="fill:#354349;fill-opacity:1" />
      <path
         inkscape:connector-curvature="0"
         d="m 36,1021.4 2,0 0,2 -2,0 0,-2 z"
         id="path3020"
         style="fill:#354349;fill-opacity:1" />
      <path
         inkscape:connector-curvature="0"
         d="m 32,1021.4 2,0 0,2 -2,0 0,-2 z"
         id="path3022"
         style="fill:#354349;fill-opacity:1" />
      <path
         inkscape:connector-curvature="0"
         d="m 28,1021.4 2,0 0,2 -2,0 0,-2 z"
         id="path3024"
         style="fill:#354349;fill-opacity:1" />
      <path
         inkscape:connector-curvature="0"
         d="m 24,1021.4 2,0 0,2 -2,0 0,-2 z"
         id="path3026"
         style="fill:#354349;fill-opacity:1" />
      <path
         inkscape:connector-curvature="0"
         d="m 20,1021.4 2,0 0,2 -2,0 0,-2 z"
         id="path3028"
         style="fill:#354349;fill-opacity:1" />
      <path
         inkscape:connector-curvature="0"
         d="m 16,1021.4 2,0 0,2 -2,0 0,-2 z"
         id="path3030"
         style="fill:#354349;fill-opacity:1" />
      <path
         inkscape:connector-curvature="0"
         d="m 12,1021.4 2,0 0,2 -2,0 0,-2 z"
         id="path3032"
         style="fill:#354349;fill-opacity:1" />
      <path
         inkscape:connector-curvature="0"
         d="m 8,1021.4 2,0 0,2 -2,0 0,-2 z"
         id="path3034"
         style="fill:#354349;fill-opacity:1" />
      <path
         inkscape:connector-curvature="0"
         d="m 36,1025.4 2,0 0,2 -2,0 0,-2 z"
         id="path3036"
         style="fill:#354349;fill-opacity:1" />
      <path
         inkscape:connector-curvature="0"
         d="m 32,1025.4 2,0 0,2 -2,0 0,-2 z"
         id="path3038"
         style="fill:#354349;fill-opacity:1" />
      <path
         inkscape:connector-curvature="0"
         d="m 28,1025.4 2,0 0,2 -2,0 0,-2 z"
         id="path3040"
         style="fill:#354349;fill-opacity:1" />
      <path
         inkscape:connector-curvature="0"
         d="m 24,1025.4 2,0 0,2 -2,0 0,-2 z"
         id="path3042"
         style="fill:#354349;fill-opacity:1" />
      <path
         inkscape:connector-curvature="0"
         d="m 20,1025.4 2,0 0,2 -2,0 0,-2 z"
         id="path3044"
         style="fill:#354349;fill-opacity:1" />
      <path
         inkscape:connector-curvature="0"
         d="m 16,1025.4 2,0 0,2 -2,0 0,-2 z"
         id="path3046"
         style="fill:#354349;fill-opacity:1" />
      <path
         inkscape:connector-curvature="0"
         d="m 12,1025.4 2,0 0,2 -2,0 0,-2 z"
         id="path3048"
         style="fill:#354349;fill-opacity:1" />
      <path
         inkscape:connector-curvature="0"
         d="m 8,1025.4 2,0 0,2 -2,0 0,-2 z"
         id="path3050"
         style="fill:#354349;fill-opacity:1" />
      <path
         inkscape:connector-curvature="0"
         d="m 36,1029.4 2,0 0,2 -2,0 0,-2 z"
         id="path3052"
         style="fill:#354349;fill-opacity:1" />
      <path
         inkscape:connector-curvature="0"
         d="m 32,1029.4 2,0 0,2 -2,0 0,-2 z"
         id="path3054"
         style="fill:#354349;fill-opacity:1" />
      <path
         inkscape:connector-curvature="0"
         d="m 28,1029.4 2,0 0,2 -2,0 0,-2 z"
         id="path3056"
         style="fill:#354349;fill-opacity:1" />
      <path
         inkscape:connector-curvature="0"
         d="m 24,1029.4 2,0 0,2 -2,0 0,-2 z"
         id="path3058"
         style="fill:#354349;fill-opacity:1" />
      <path
         inkscape:connector-curvature="0"
         d="m 20,1029.4 2,0 0,2 -2,0 0,-2 z"
         id="path3060"
         style="fill:#354349;fill-opacity:1" />
      <path
         inkscape:connector-curvature="0"
         d="m 16,1029.4 2,0 0,2 -2,0 0,-2 z"
         id="path3062"
         style="fill:#354349;fill-opacity:1" />
      <path
         inkscape:connector-curvature="0"
         d="m 12,1029.4 2,0 0,2 -2,0 0,-2 z"
         id="path3064"
         style="fill:#354349;fill-opacity:1" />
      <path
         inkscape:connector-curvature="0"
         d="m 8,1029.4 2,0 0,2 -2,0 0,-2 z"
         id="path3066"
         style="fill:#354349;fill-opacity:1" />
      <path
         inkscape:connector-curvature="0"
         d="m 36,1033.4 2,0 0,2 -2,0 0,-2 z"
         id="path3068"
         style="fill:#354349;fill-opacity:1" />
      <path
         inkscape:connector-curvature="0"
         d="m 32,1033.4 2,0 0,2 -2,0 0,-2 z"
         id="path3070"
         style="fill:#354349;fill-opacity:1" />
      <path
         inkscape:connector-curvature="0"
         d="m 28,1033.4 2,0 0,2 -2,0 0,-2 z"
         id="path3072"
         style="fill:#354349;fill-opacity:1" />
      <path
         inkscape:connector-curvature="0"
         d="m 24,1033.4 2,0 0,2 -2,0 0,-2 z"
         id="path3074"
         style="fill:#354349;fill-opacity:1" />
      <path
         inkscape:connector-curvature="0"
         d="m 20,1033.4 2,0 0,2 -2,0 0,-2 z"
         id="path3076"
         style="fill:#354349;fill-opacity:1" />
      <path
         inkscape:connector-curvature="0"
         d="m 16,1033.4 2,0 0,2 -2,0 0,-2 z"
         id="path3078"
         style="fill:#354349;fill-opacity:1" />
      <path
         inkscape:connector-curvature="0"
         d="m 12,1033.4 2,0 0,2 -2,0 0,-2 z"
         id="path3080"
         style="fill:#354349;fill-opacity:1" />
      <path
         inkscape:connector-curvature="0"
         d="m 8,1033.4 2,0 0,2 -2,0 0,-2 z"
         id="path3082"
         style="fill:#354349;fill-opacity:1" />
    </g>
    <path
       id="path4701"
       d="m 56,1035.9 c 0,3.5899 -2.9101,6.5 -6.5,6.5 -3.5899,0 -6.5,-2.9101 -6.5,-6.5 0,-3.5899 2.9101,-6.5 6.5,-6.5 3.5899,0 6.5,2.9101 6.5,6.5 z"
       inkscape:connector-curvature="0"
       style="fill:#28eab9;fill-opacity:1" />
    <path
       id="path4716"
       d="m 45,1039.36 6,6 4,0 c 3,0 5,-2 5,-5 l 0,-1 -5,-5 c 1,4 -4,10 -10,5 z"
       inkscape:connector-curvature="0"
       style="fill-opacity:0.13725" />
    <path
       style="fill:#28eab9;fill-opacity:1"
       inkscape:connector-curvature="0"
       d="m 56,1020.9 c 0,3.5899 -2.9101,6.5 -6.5,6.5 -3.5899,0 -6.5,-2.9101 -6.5,-6.5 0,-3.5899 2.9101,-6.5 6.5,-6.5 3.5899,0 6.5,2.9101 6.5,6.5 z"
       id="path3921" />
    <path
       style="fill:#4d616a;fill-opacity:1"
       inkscape:connector-curvature="0"
       d="m 55,1020.9 c 0,3.0375 -2.4624,5.5 -5.5,5.5 -3.0376,0 -5.5,-2.4625 -5.5,-5.5 0,-3.0375 2.4624,-5.5 5.5,-5.5 3.0376,0 5.5,2.4625 5.5,5.5 z"
       id="path3918" />
    <path
       id="path4718"
       d="m 46,1025.4 14,14 0,-16 -7,-7 c 5,6 -1,13 -7,9 z"
       inkscape:connector-curvature="0"
       style="fill-opacity:0.13725" />
    <path
       id="path4703"
       d="m 55,1035.9 c 0,3.0375 -2.4624,5.5 -5.5,5.5 -3.0376,0 -5.5,-2.4625 -5.5,-5.5 0,-3.0375 2.4624,-5.5 5.5,-5.5 3.0376,0 5.5,2.4625 5.5,5.5 z"
       inkscape:connector-curvature="0"
       style="fill:#4d616a;fill-opacity:1" />
    <rect
       style="fill:#808080;fill-opacity:1"
       id="rect4486"
       width="43.310291"
       height="2.3864853"
       x="247.15416"
       y="965.91937"
       transform="matrix(0.97151643,0.23697222,-0.23697222,0.97151643,0,0)"
       inkscape:transform-center-x="21.235945"
       inkscape:transform-center-y="-5.032286" />
    <path
       id="path4707"
       d="m 51,1010.4 4,0 0,-2 c 0,-3 -4,-3 -4,0 l 0,2 z"
       inkscape:connector-curvature="0"
       style="fill:#b3b3b3" />
    <g
       id="g3541">
      <g
         id="g3545" />
    </g>
  </g>
  <metadata
     id="metadata3444">
    <rdf:RDF>
      <cc:Work>
        <dc:format>image/svg+xml</dc:format>
        <dc:type
           rdf:resource="http://purl.org/dc/dcmitype/StillImage" />
        <cc:license
           rdf:resource="http://creativecommons.org/publicdomain/zero/1.0/" />
        <dc:publisher>
          <cc:Agent
             rdf:about="http://openclipart.org/">
            <dc:title>Openclipart</dc:title>
          </cc:Agent>
        </dc:publisher>
        <dc:title></dc:title>
        <dc:date>2013-09-17T22:35:05</dc:date>
        <dc:description>portable compact radio</dc:description>
        <dc:source>http://openclipart.org/detail/183544/radio-portable-by-crisg-183544</dc:source>
        <dc:creator>
          <cc:Agent>
            <dc:title>crisg</dc:title>
          </cc:Agent>
        </dc:creator>
        <dc:subject>
          <rdf:Bag>
            <rdf:li>AM-FM tuner</rdf:li>
            <rdf:li>clip art</rdf:li>
            <rdf:li>icon</rdf:li>
            <rdf:li>music</rdf:li>
            <rdf:li>news</rdf:li>
            <rdf:li>object</rdf:li>
            <rdf:li>portable radio</rdf:li>
            <rdf:li>radio</rdf:li>
            <rdf:li>wooden radio</rdf:li>
          </rdf:Bag>
        </dc:subject>
      </cc:Work>
      <cc:License
         rdf:about="http://creativecommons.org/publicdomain/zero/1.0/">
        <cc:permits
           rdf:resource="http://creativecommons.org/ns#Reproduction" />
        <cc:permits
           rdf:resource="http://creativecommons.org/ns#Distribution" />
        <cc:permits
           rdf:resource="http://creativecommons.org/ns#DerivativeWorks" />
      </cc:License>
    </rdf:RDF>
  </metadata>
</svg>
